<svg width="242" height="165" viewBox="0 0 242 165" fill="none" xmlns="http://www.w3.org/2000/svg">
<mask id="path-1-inside-1_93_2348" fill="white">
<path d="M237.636 108.629C237.711 108.592 237.784 108.55 237.857 108.508C237.919 108.473 237.983 108.441 238.043 108.403C238.114 108.359 238.181 108.31 238.249 108.263C238.309 108.221 238.37 108.182 238.428 108.137C238.491 108.088 238.55 108.035 238.61 107.984C238.669 107.935 238.729 107.887 238.785 107.833C238.841 107.781 238.893 107.724 238.947 107.669C239.002 107.612 239.058 107.557 239.111 107.497C239.167 107.434 239.216 107.366 239.269 107.299C239.313 107.243 239.359 107.19 239.402 107.131C239.479 107.023 239.551 106.91 239.619 106.795C239.631 106.775 239.645 106.757 239.657 106.736C239.67 106.714 239.68 106.691 239.691 106.669C239.755 106.554 239.816 106.438 239.871 106.317C239.903 106.247 239.928 106.176 239.956 106.104C239.985 106.031 240.017 105.958 240.043 105.883C240.07 105.803 240.091 105.721 240.114 105.64C240.133 105.572 240.155 105.504 240.171 105.434C240.19 105.353 240.203 105.272 240.217 105.191C240.23 105.119 240.245 105.047 240.255 104.974C240.266 104.895 240.27 104.817 240.277 104.738C240.283 104.661 240.291 104.585 240.294 104.508C240.297 104.429 240.293 104.351 240.291 104.273C240.29 104.195 240.292 104.118 240.286 104.042C240.28 103.95 240.267 103.86 240.256 103.77C240.248 103.706 240.244 103.642 240.233 103.578C240.208 103.421 240.175 103.266 240.133 103.112L213.739 4.60841C213.057 2.06268 210.442 0.55263 207.896 1.23476L62.7281 40.1324C62.6875 40.1432 62.6495 40.1587 62.6093 40.1708C62.5221 40.1968 62.4358 40.2239 62.3505 40.2546C62.2826 40.2787 62.2159 40.3052 62.1495 40.3328C62.0735 40.3637 61.9986 40.3963 61.9244 40.4314C61.8547 40.4639 61.7863 40.4986 61.7189 40.5345C61.6503 40.5713 61.5822 40.6093 61.5152 40.6496C61.4488 40.6892 61.3841 40.7302 61.3203 40.7724C61.255 40.8162 61.19 40.8613 61.1269 40.9085C61.067 40.9528 61.0085 40.9975 60.9513 41.0444C60.8875 41.0964 60.825 41.1507 60.7634 41.2061C60.711 41.2537 60.6599 41.3016 60.61 41.3512C60.5496 41.4109 60.4911 41.4727 60.4335 41.5355C60.3862 41.5877 60.3405 41.6408 60.2956 41.6943C60.2428 41.7579 60.1911 41.8231 60.1413 41.8904C60.0959 41.952 60.0521 42.0144 60.0091 42.078C59.9669 42.1413 59.9252 42.2045 59.8855 42.2705C59.8404 42.3451 59.7983 42.4216 59.757 42.4985C59.7363 42.537 59.7129 42.5723 59.6936 42.611C59.682 42.6339 59.6745 42.6576 59.6634 42.6803C59.6236 42.7628 59.5883 42.8473 59.5532 42.9325C59.5277 42.9946 59.501 43.0571 59.4783 43.1198C59.4488 43.2015 59.4235 43.284 59.3983 43.3672C59.3777 43.4352 59.3557 43.503 59.3385 43.5715C59.3182 43.6507 59.3034 43.7305 59.2873 43.8105C59.2726 43.8836 59.2567 43.957 59.2454 44.0305C59.2339 44.108 59.2268 44.187 59.2193 44.2647C59.2115 44.3412 59.2029 44.4173 59.1989 44.4934C59.1951 44.5702 59.1959 44.647 59.1955 44.7242C59.1956 44.8032 59.1943 44.8819 59.1977 44.9607C59.2009 45.0342 59.2094 45.1077 59.2159 45.181C59.2238 45.2645 59.2317 45.348 59.2432 45.4306C59.253 45.4991 59.2674 45.5676 59.2806 45.6366C59.2975 45.7242 59.3151 45.8117 59.3371 45.8987C59.3432 45.9241 59.3467 45.9495 59.3535 45.9747L66.9687 74.395C67.6508 76.9407 70.2663 78.4508 72.812 77.7686C75.3577 77.0865 76.8678 74.471 76.1857 71.9253L71.313 53.7401L122.006 79.0377C121.833 79.2455 121.672 79.4672 121.531 79.7097L91.9838 130.887L83.8688 100.601C83.1866 98.0557 80.5711 96.5456 78.0254 97.2278C75.4797 97.9099 73.9696 100.525 74.6517 103.071L76.1606 108.702L52.35 115.082C49.8042 115.764 48.2942 118.38 48.9763 120.925C49.6584 123.471 52.2739 124.981 54.8196 124.299L78.6303 117.919L85.7481 144.483C86.4302 147.029 89.0457 148.539 91.5914 147.857L236.759 108.959C236.911 108.918 237.061 108.87 237.208 108.815C237.277 108.789 237.341 108.757 237.408 108.729C237.485 108.696 237.561 108.666 237.636 108.629ZM227.935 94.4598L176.757 64.9126C176.725 64.8937 176.691 64.8796 176.658 64.8621L200.104 30.987C201.603 28.8203 201.063 25.8488 198.896 24.3489C196.73 22.85 193.759 23.3894 192.258 25.5573L152.195 83.44L77.3545 46.0926L205.757 11.6874L227.935 94.4598ZM129.796 84.482C130.037 84.0652 130.205 83.6275 130.309 83.1821L151.635 93.8239C152.713 94.3616 153.908 94.4563 155 94.1636C156.061 93.8794 157.023 93.231 157.689 92.2702L171.261 72.6601C171.484 72.8508 171.724 73.0256 171.986 73.1772L223.164 102.725L100.249 135.66L129.796 84.482Z"/>
</mask>
<path d="M237.636 108.629C237.711 108.592 237.784 108.55 237.857 108.508C237.919 108.473 237.983 108.441 238.043 108.403C238.114 108.359 238.181 108.31 238.249 108.263C238.309 108.221 238.37 108.182 238.428 108.137C238.491 108.088 238.55 108.035 238.61 107.984C238.669 107.935 238.729 107.887 238.785 107.833C238.841 107.781 238.893 107.724 238.947 107.669C239.002 107.612 239.058 107.557 239.111 107.497C239.167 107.434 239.216 107.366 239.269 107.299C239.313 107.243 239.359 107.19 239.402 107.131C239.479 107.023 239.551 106.91 239.619 106.795C239.631 106.775 239.645 106.757 239.657 106.736C239.67 106.714 239.68 106.691 239.691 106.669C239.755 106.554 239.816 106.438 239.871 106.317C239.903 106.247 239.928 106.176 239.956 106.104C239.985 106.031 240.017 105.958 240.043 105.883C240.07 105.803 240.091 105.721 240.114 105.64C240.133 105.572 240.155 105.504 240.171 105.434C240.19 105.353 240.203 105.272 240.217 105.191C240.23 105.119 240.245 105.047 240.255 104.974C240.266 104.895 240.27 104.817 240.277 104.738C240.283 104.661 240.291 104.585 240.294 104.508C240.297 104.429 240.293 104.351 240.291 104.273C240.29 104.195 240.292 104.118 240.286 104.042C240.28 103.95 240.267 103.86 240.256 103.77C240.248 103.706 240.244 103.642 240.233 103.578C240.208 103.421 240.175 103.266 240.133 103.112L213.739 4.60841C213.057 2.06268 210.442 0.55263 207.896 1.23476L62.7281 40.1324C62.6875 40.1432 62.6495 40.1587 62.6093 40.1708C62.5221 40.1968 62.4358 40.2239 62.3505 40.2546C62.2826 40.2787 62.2159 40.3052 62.1495 40.3328C62.0735 40.3637 61.9986 40.3963 61.9244 40.4314C61.8547 40.4639 61.7863 40.4986 61.7189 40.5345C61.6503 40.5713 61.5822 40.6093 61.5152 40.6496C61.4488 40.6892 61.3841 40.7302 61.3203 40.7724C61.255 40.8162 61.19 40.8613 61.1269 40.9085C61.067 40.9528 61.0085 40.9975 60.9513 41.0444C60.8875 41.0964 60.825 41.1507 60.7634 41.2061C60.711 41.2537 60.6599 41.3016 60.61 41.3512C60.5496 41.4109 60.4911 41.4727 60.4335 41.5355C60.3862 41.5877 60.3405 41.6408 60.2956 41.6943C60.2428 41.7579 60.1911 41.8231 60.1413 41.8904C60.0959 41.952 60.0521 42.0144 60.0091 42.078C59.9669 42.1413 59.9252 42.2045 59.8855 42.2705C59.8404 42.3451 59.7983 42.4216 59.757 42.4985C59.7363 42.537 59.7129 42.5723 59.6936 42.611C59.682 42.6339 59.6745 42.6576 59.6634 42.6803C59.6236 42.7628 59.5883 42.8473 59.5532 42.9325C59.5277 42.9946 59.501 43.0571 59.4783 43.1198C59.4488 43.2015 59.4235 43.284 59.3983 43.3672C59.3777 43.4352 59.3557 43.503 59.3385 43.5715C59.3182 43.6507 59.3034 43.7305 59.2873 43.8105C59.2726 43.8836 59.2567 43.957 59.2454 44.0305C59.2339 44.108 59.2268 44.187 59.2193 44.2647C59.2115 44.3412 59.2029 44.4173 59.1989 44.4934C59.1951 44.5702 59.1959 44.647 59.1955 44.7242C59.1956 44.8032 59.1943 44.8819 59.1977 44.9607C59.2009 45.0342 59.2094 45.1077 59.2159 45.181C59.2238 45.2645 59.2317 45.348 59.2432 45.4306C59.253 45.4991 59.2674 45.5676 59.2806 45.6366C59.2975 45.7242 59.3151 45.8117 59.3371 45.8987C59.3432 45.9241 59.3467 45.9495 59.3535 45.9747L66.9687 74.395C67.6508 76.9407 70.2663 78.4508 72.812 77.7686C75.3577 77.0865 76.8678 74.471 76.1857 71.9253L71.313 53.7401L122.006 79.0377C121.833 79.2455 121.672 79.4672 121.531 79.7097L91.9838 130.887L83.8688 100.601C83.1866 98.0557 80.5711 96.5456 78.0254 97.2278C75.4797 97.9099 73.9696 100.525 74.6517 103.071L76.1606 108.702L52.35 115.082C49.8042 115.764 48.2942 118.38 48.9763 120.925C49.6584 123.471 52.2739 124.981 54.8196 124.299L78.6303 117.919L85.7481 144.483C86.4302 147.029 89.0457 148.539 91.5914 147.857L236.759 108.959C236.911 108.918 237.061 108.87 237.208 108.815C237.277 108.789 237.341 108.757 237.408 108.729C237.485 108.696 237.561 108.666 237.636 108.629ZM227.935 94.4598L176.757 64.9126C176.725 64.8937 176.691 64.8796 176.658 64.8621L200.104 30.987C201.603 28.8203 201.063 25.8488 198.896 24.3489C196.73 22.85 193.759 23.3894 192.258 25.5573L152.195 83.44L77.3545 46.0926L205.757 11.6874L227.935 94.4598ZM129.796 84.482C130.037 84.0652 130.205 83.6275 130.309 83.1821L151.635 93.8239C152.713 94.3616 153.908 94.4563 155 94.1636C156.061 93.8794 157.023 93.231 157.689 92.2702L171.261 72.6601C171.484 72.8508 171.724 73.0256 171.986 73.1772L223.164 102.725L100.249 135.66L129.796 84.482Z" fill="#1064E5" stroke="#DEEEFC" stroke-width="3" mask="url(#path-1-inside-1_93_2348)"/>
<path d="M96.3106 86.6115L18.4778 107.467C16.3322 108.042 14.128 106.769 13.553 104.623C12.9781 102.478 14.2507 100.274 16.3964 99.6986L94.2291 78.8434C96.3747 78.2684 98.579 79.5411 99.1539 81.6867C99.7288 83.8323 98.4562 86.0366 96.3106 86.6115Z" fill="#1064E5" stroke="#DEEEFC" stroke-width="1.5"/>
<path d="M54.6854 70.5448L19.7376 79.9091C17.592 80.484 15.3877 79.2114 14.8128 77.0658C14.2379 74.9201 15.5105 72.7159 17.6561 72.141L52.604 62.7767C54.7496 62.2018 56.9538 63.4744 57.5287 65.6201C58.1037 67.7657 56.8311 69.9699 54.6854 70.5448Z" fill="#1064E5" stroke="#DEEEFC" stroke-width="1.5"/>
<path d="M28.0585 143.223L61.8542 134.168C63.9998 133.593 66.204 134.866 66.779 137.011C67.3539 139.157 66.0813 141.361 63.9356 141.936L30.1399 150.992C27.9943 151.567 25.7901 150.294 25.2151 148.148C24.6402 146.003 25.9128 143.798 28.0585 143.223Z" fill="#1064E5" stroke="#DEEEFC" stroke-width="1.5"/>
</svg>
