<svg width="40" height="40" viewBox="0 0 40 40" fill="none" xmlns="http://www.w3.org/2000/svg">
<rect width="40" height="40" rx="9.92226" fill="#1064E5"/>
<path fill-rule="evenodd" clip-rule="evenodd" d="M31.0672 31.4785C28.2429 34.0674 24.6636 35.3618 20.3292 35.3618C15.7399 35.3618 11.9743 33.9301 9.03235 31.0667C6.11007 28.2228 4.64893 24.5161 4.64893 19.9463C4.64893 15.3962 6.07084 11.709 8.91468 8.88477C11.7781 6.06055 15.4653 4.64844 19.9762 4.64844C22.2905 4.64844 24.3792 5.04069 26.2424 5.8252L25.507 9.26722C23.938 8.54155 22.1336 8.17872 20.0939 8.17872C16.6224 8.17872 13.808 9.22799 11.6506 11.3265C9.51286 13.4251 8.44397 16.3082 8.44397 19.9757C8.44397 23.6237 9.54228 26.5067 11.7389 28.6249C13.9551 30.7627 16.848 31.8316 20.4175 31.8316C21.9865 31.8316 23.4182 31.606 24.7127 31.1549C26.0267 30.7235 27.1937 30.0566 28.2135 29.1544C29.253 28.2719 30.0571 27.0853 30.6259 25.5947C30.9252 24.8365 31.1483 24.0174 31.2954 23.1374C31.4742 21.4488 31.5848 19.743 31.2919 18.4194C31.1346 17.7081 30.8955 17.2874 30.6459 17.0471C30.4334 16.8428 30.0596 16.6174 29.2664 16.6019C27.8588 16.5744 26.2893 17.467 24.6892 19.1417C23.1384 20.7648 21.8325 22.8282 21.0317 24.3817C20.7199 24.9865 20.5043 25.4846 20.5043 25.4846L20.4216 25.4011L20.4214 25.4016L14.042 18.983L16.7422 16.2828L19.7288 19.2042C20.3776 18.2838 21.1149 17.355 21.9282 16.5037C23.7644 14.582 26.3072 12.7249 29.3409 12.784C30.9311 12.8151 32.2781 13.3185 33.2935 14.2955C34.2715 15.2365 34.767 16.4495 35.0203 17.5945C35.22 18.4968 35.2903 19.466 35.29 20.417H35.3035V20.9171C35.3035 22.0599 35.2105 23.1413 35.0244 24.1613L35.0193 24.2061L35.0162 24.2058C34.4723 27.1396 33.1559 29.5639 31.0672 31.4785Z" fill="white"/>
</svg>
