<svg width="60" height="49" viewBox="0 0 60 49" fill="none" xmlns="http://www.w3.org/2000/svg">
<path d="M51.2132 9.95622C45.547 4.29002 38.0134 1.16943 30.0001 1.16943C21.9867 1.16943 14.4531 4.29002 8.78679 9.95622C3.12047 15.6224 0 23.1561 0 31.1694C0 37.0374 1.70055 42.7264 4.91765 47.6217C5.09767 47.8955 5.39658 48.0442 5.70157 48.0442C5.8782 48.0442 6.0567 47.9943 6.21529 47.8902C6.64772 47.6059 6.76789 47.0249 6.48374 46.5925C5.68342 45.3749 4.98441 44.1043 4.38754 42.7926L6.97239 41.7218C7.4505 41.5238 7.67761 40.9756 7.47955 40.4975C7.28149 40.0193 6.73322 39.7925 6.25523 39.9904L3.66862 41.0618C2.59481 38.2085 1.99184 35.1893 1.89006 32.1063H4.68703C5.20449 32.1063 5.62404 31.6867 5.62404 31.1693C5.62404 30.6518 5.20449 30.2323 4.68703 30.2323H1.89112C1.99208 27.1275 2.59411 24.1101 3.65866 21.2726L6.25523 22.3482C6.37247 22.3968 6.49393 22.4197 6.61352 22.4197C6.98118 22.4197 7.33009 22.2019 7.47955 21.8411C7.67761 21.363 7.4505 20.8149 6.97239 20.6168L4.37583 19.5412C5.62943 16.782 7.33736 14.2227 9.46144 11.9558L11.4385 13.9329C11.6215 14.1158 11.8612 14.2073 12.1011 14.2073C12.341 14.2073 12.5807 14.1158 12.7637 13.9329C13.1297 13.567 13.1297 12.9737 12.7637 12.6078L10.7866 10.6308C13.0535 8.50679 15.6128 6.79886 18.372 5.54514L19.4476 8.14171C19.597 8.50257 19.946 8.72031 20.3136 8.72031C20.4332 8.72031 20.5547 8.69735 20.6719 8.64875C21.15 8.45069 21.3771 7.90254 21.1791 7.42443L20.1035 4.82786C22.941 3.76331 25.9584 3.16128 29.0632 3.06032V5.85623C29.0632 6.37369 29.4827 6.79324 30.0002 6.79324C30.5176 6.79324 30.9372 6.37369 30.9372 5.85623V3.06055C34.042 3.16151 37.0594 3.76354 39.8969 4.8281L38.8213 7.42466C38.6232 7.90277 38.8503 8.45092 39.3284 8.64898C39.4457 8.69759 39.5671 8.72054 39.6867 8.72054C40.0544 8.72054 40.4033 8.50269 40.5528 8.14194L41.6283 5.54538C44.3876 6.79898 46.9469 8.50691 49.2136 10.631L47.2365 12.6081C46.8705 12.974 46.8705 13.5672 47.2365 13.9331C47.4195 14.1161 47.6593 14.2075 47.8991 14.2075C48.139 14.2075 48.3788 14.1161 48.5617 13.9331L50.5388 11.956C52.6628 14.2229 54.3707 16.7822 55.6244 19.5415L53.0278 20.617C52.5497 20.8151 52.3226 21.3632 52.5207 21.8413C52.6701 22.2022 53.0191 22.4199 53.3867 22.4199C53.5063 22.4199 53.6278 22.397 53.745 22.3484L56.3416 21.2728C57.4061 24.1103 58.0082 27.1277 58.1091 30.2325H55.3132C54.7957 30.2325 54.3762 30.652 54.3762 31.1695C54.3762 31.687 54.7957 32.1065 55.3132 32.1065H58.1101C58.0084 35.1895 57.4053 38.2088 56.3315 41.0621L53.7449 39.9906C53.2669 39.7929 52.7188 40.0196 52.5206 40.4978C52.3225 40.9759 52.5496 41.524 53.0277 41.7221L55.6126 42.7928C55.0157 44.1046 54.3167 45.3751 53.5164 46.5928C53.2321 47.0252 53.3524 47.6061 53.7848 47.8904C54.2171 48.1744 54.7982 48.0544 55.0825 47.6219C58.2997 42.7268 60.0001 37.0376 60.0001 31.1696C60 23.1561 56.8794 15.6224 51.2132 9.95622Z" fill="#1064E5" stroke="#1064E5" stroke-width="0.5"/>
</svg>
